/* XPM */
static char *_3e6e23b050d4293baa551bcc96931a3kMUeshNSrIZOX3OE[] = {
/* columns rows colors chars-per-pixel */
"120 120 11 1 ",
"  c #50444E",
". c #51454F",
"X c #524650",
"o c #534751",
"O c #544852",
"+ c #554953",
"@ c #564A54",
"# c #574B55",
"$ c #584C56",
"% c #594D57",
"& c #5A4E58",
/* pixels */
"OOOOOOOOOOOOOOOOoOO@@@@@OOOOOOOOoooooooo.............oooooooooooooooooooooooooooo.o.o.o.oooooooo...........o.oooOOO@O@@@",
"OOOOOOOOOOOOOOOOoO@@@@@OOOOOOOOOoooooooo...........oooooOOOOOOOOOOOOOOOOOOOOOOOOooooooooOOoooooo...........oooooOOOO@@@@",
"OOOOOOOOOOOOOOOOoOO@@@@@OOOOOOOOooooOOOOo..oo.o..oooooOOOOOOOOOOOOOOOOOO@@@@@@@@@@@@@@@@@O@Oooo..oo.o..o.o.ooooOOOO@O@@@",
"OOOOOOOOOOOOOOOOoO@@@@@OOOOOOOOOoooOOOOOooooooooooooOOOOO@O@@O@O@O@OO@O@$$$$$$$$$$$$$$$$$@@Ooo.ooooooooooooOOOOOOOOO@@@@",
"OOOOOOOOOOOOOOOOoOO@@@@@OOOOOOOOoooOO@O@O@O@@O@OO@@OOOOO@O@OO@O@O@O@@O@O$&$&$&$&&$&$$&$&$$$@OOooO@O@O@O@O@OOOOOOOOO@O@@@",
"OOOOOOOOOOOOOOOOoO@@@@@OOOOOOOOOooOOO@@@@@@@@@@@@@@O@OOOOOOOOOOOOOOOOOOO$$$$$$$$$$$$$$$$$$@$@@OO@@@@@@@@@@@@O@OOOOOO@@@@",
"OOOOOOOOOOOOOOOOoOO@@@@@OOOOOOOOooOOO@$@@$@$@$@$@@@@@@O@OOOOOOOOOOOOOOOO@@@@@@@@@$@$$@@$$@$@$@@@@$@$@$@$$@@@@@O@OOO@O@@@",
"OOOOOOOOOOOOOOOOoO@@@@@OOOOOOOOOooO@@@$$$@$@$@$@$$$@@O@OooooooooooooooooO@O@O@O@@@@@@@@@@$@$@$$$$@$@$@$@$$@@@O@OOOOO@@@@",
"OOOOOOOOOOOOOOOOO@@$@$$@@O@O@O@OOOO@@$$$$$$$$$$$@$@@@OOOoooooooooooooooo@O@O@O@OO@O@O@O@O@$$&&&$$$$$$$$$$$$@@@OOOOO@O@@@",
"OOOOOOOOOOOOOOOOOO@@$@@@@@@@@@@@OO@@@@$$$$$$$$$$$@$$@@@@OOOOOOOOOOOOOOOO@@@@@@@@@@@@@@@@@@$&$&$$$$$$$$$$$$@@@OOOOOOO@@@@",
"OOOOOOOOOOOOOOOOO@@$@$@@@@@@@@@@OOO@@$$$$@@$@$$@$$$@$@@@@@@@@@@@@@@@@@@@@$@$@$@$$@@$@$$@@@@$$$$$@$@$@$@$$$@@@OOOOOO@O@@@",
"OOOOOOOOOOOOOOOOOO@@$@$@$@$@$@$@@O@@@@$@@@@@@@@@$$$$@$@$$$$$$$$$$$$$$$$$$$$$$$$$$$$$$$$$$$@$$$$@@@@@@@@@@@@@OOOOOOOO@@@@",
"OOOOOOOOOOOOOOOOO@@$@$@@@$@$@$@$O@@@@@@$@@@@@@@@$@$@$@$@&$&$$&$&$&$&&$&$$$$$$$$$$$$$$$$$@$@$@@@$@@@@@@@@@O@O@OOOOOO@O@@@",
"OOOOOOOOOOOOOOOOOO@@$@$@@@@@@@@@@@@@@@@@@O@O@O@OO@@@@@@$$$$$$$$$$$$$$$$$$$$$$$$$$$$$$$$$$@$@O@@@O@@O@OO@@@OOOOOOOOOO@@@@",
"OOOOOOOOOOOOOOOOO@@$@$$@@@@@@@@@@@@@@@@@OOOOOOOOoOOO@O@@@@@@@@@@@@@@@@@@@$@$@$@$@$@$@$@$&$@O@O@@OOOOOOOOOOOOOOOOOOO@O@@@",
"OOOOOOOOOOOOOOOOOO@@$@@@@O@O@O@O@@@@@@@@OOOOOOOOoooOOO@O@O@O@O@O@O@O@O@O$@$@$@$@$@$@$@$@$$@@OO@@OOOOOOOOOOOOOOOOOOOO@@@@",
"OOOOOOOOOOOOOOOOO@O@O@O@O@O@O@O@ooooooooO@O@O@O@ooooooooooooooooooooooooO@O@O@O@O@O@O@O@OOOOOOOOOOOOOOOOOOOOOOOOOOOOOOOO",
"OOOOOOOOOOOOOOOO@O@O@O@OOOOOOOOOoooooooo@O@O@O@Ooooooooooooooooooooooooo@O@O@O@O@O@O@O@OOOOOOOOOOOOOOOOOOOOOOOOOOOOOOOOO",
"OOOOOOOOOOOOOOOOO@O@@OO@OOOOOOOOooooooooO@O@O@O@ooooooooooooooooooooooooO@O@O@O@O@O@O@O@OOOOOOOOOOOOOOOOOOOOOOOOOOOOOOOO",
"OOOOOOOOOOOOOOOOOOOOOOOOooooooooooooooooOOOOOOOOoooooooooooooooooooooooo@O@O@O@O@O@O@O@OOOOOOOOOOOOOOOOOOOOOOOOOOOOOOOOO",
"OOOOOOOOOOOOOOOOOOOOOOOOooooooooooooooooOOOOOOOOooooooooooooooooooooooooO@O@O@O@O@O@O@O@OOOOOOOOOOOOOOOOOOOOOOOOOOOOOOOO",
"OOOOOOOOOOOOOOOOooooooooOOOOOOOOoooooooooooooooooooooooooooooooooooooooo@O@O@O@O@O@O@O@OOOOOOOOOOOOOOOOOOOOOOOOOOOOOOOOO",
"OOOOOOOOOOOOOOOOooooooooOOOOOOOOooooooooooooooooooooooooooooooooooooooooO@O@O@O@O@O@O@O@OOOOOOOOOOOOOOOOOOOOOOOOOOOOOOOO",
"OOOOOOOOOOOOOOOOoooooooo@O@O@O@Ooooooooooooooooooooooooooooooooooooooooo@O@O@O@O@O@O@O@OOOOOOOOOOOOOOOOOOOOOOOOOOOOOOOOO",
"OOOOOOOOOOOOOOOOOOOOOOOOOOOOOOOOOOOOOOOOOOOOOOOOOOOOOOOOoOOOOOOOOOOOOOOOOOOOOOOOOOOOOOOOO@OOOoooOOOOOOOOOOOOOOOOOOOOOOOO",
"OOOOOOOOOOOOOOOOOOOOOOOOOOOOOOOOOOOOOOOOOOOOOOOOOOOOOOOOOOOOOOOOOOOOOOOOOOOOOOOOOOOOOOOO@O@OOoooOOOOOOOOOOOOOOOOOOOOOOOO",
"OOOOOOOOOOOOOOOOOOOOOOOOOOOOOOOOOOOOOOOOOOOOOOOOOOOOOOOOOOOOOOOOOOOOOOOOOOOOOOOOOOOOOOOOO@OOOoooOOOOOOOOOOOOOOOOOOOOOOOO",
"OOOOOOOOOOOOOOOOOOOOOOOOOOOOOOOOOOOOOOOOooooooooooOOOO@OO@O@@O@O@O@OO@O@@O@O@O@OO@O@@O@O@O@OOoooOOOOOOOOOOOOOOOOOOOOOOOO",
"OOOOOOOOOOOOOOOOOOOOOOOOOOOOOOOOOOOOOOOOoooooooooooOO@O@@O@OO@O@O@O@@O@OO@O@O@O@@O@OO@O@O@OOOoooOOOOOOOOOOOOOOOOOOOOOOOO",
"OOOOOOOOOOOOOOOOOOOOOOOOOOOOOOOOOOOOOOOO.oo..o.oo.oOOO@@@@@@@@@@@@@@@@@@@@@@@@@@@@@@@@@@@O@OOoooOOOOOOOOOOOOOOOOOOOOOOOO",
"OOOOOOOOOOOOOOOOOOOOOOOOOOOOOOOOOOOOOOOOo.o.o.o.o.oOO@@@@@@@@@@@@@@@@@@@@@@@@@@@@@@@@@@@O@OOOoooOOOOOOOOOOOOOOOOOOOOOOOO",
"OOOOOOOOOOOOOOOOOOOOOOOOOOOOOOOOOOOOOOOO.o.o.o.o.ooOOO@@@@@@@@@@@@@@@@@@@@@@@@@@@@@@@@@@@O@OOoooOOOOOOOOOOOOOOOOOOOOOOOO",
"OOOOOOOOOOOOOOOOOOOOOOOOOOOOOOOOOOOoo.o.o.o.o.o....oOOO@@$@$@$@$@$@$@$@$@$@$@$@$@$@$@$@$$@OOOOO@OOOOOOOOOOOOOOOOOOOOOOOO",
"OOOOOOOOOOOOOOOOOOOOOOOOOOOOOOOOOOOooo.o.o.o.o.o...oOO@O$@$@$@$@$@$@$@$@$@$@$@$@$@$@$@$@@@@OOOOOOOOOOOOOOOOOOOOOOOOOOOOO",
"OOOOOOOOOOOOOOOOOOOOOOOOOOOOOOOOOOOOoooooooOoooo.oooOOO@@$@$$@@$@$$@@$@$@$@$@$@$@$@$@$@$$@OOOOO@OOOOOOOOOOOOOOOOOOOOOOOO",
"OOOOOOOOOOOOOOOOOOOOOOOOOOOOOOOOOOOOOOOoOOOOOOOOooooOO@O@@@@@@@@@@@@@@@@$@$@$@$@$@$@$@$@@@@OOOOOOOOOOOOOOOOOOOOOOOOOOOOO",
"OOOOOOOOOOOOOOOOOOOOOOOOOOOOOOOOOOOOOOOOOOOOOOOOooOOO@O@@@@@@@@@@@@@@@@@@$@$@$@$@$@$@$@$$@OOOOO@OOOOOOOOOOOOOOOOOOOOOOOO",
"OOOOOOOOOOOOOOOOOOOOOOOOOOOOOOOOOOOOO@O@O@@OO@O@OOOO@O@O@O@OO@@O@OO@@O@O$@$@$@$@$@$@$@$@@@@OOOOOOOOOOOOOOOOOOOOOOOOOOOOO",
"OOOOOOOOOOOOOOOOOOOOOOOOOOOOOOOOOOOO@@@@@@@@@@@@O@O@O@O@O@O@O@O@O@O@O@O@@$@$@$@$@$@$@$@$$@OOOOO@OOOOOOOOOOOOOOOOOOOOOOOO",
"OOOOOOOOOOOOOOOOOOOOOOOOOOOOOOOOOOO@O@@@@@@@@@@@@O@O@O@O@O@O@O@O@O@O@O@O$@$@$@$@$@$@$@$@@@@OOOOOOOOOOOOOOOOOOOOOOOOOOOOO",
"OOOOOOOOoooOOOO@O@@OOoooOOOOOOOOOO@@@@$$$@$@$@$@@$$$$$@@OOOOOOOOOOOOOOOO@@@@@@@@@@@@@@@@@@OOOOO@OOOOOOOOOOOOOOOOOOOOOOOO",
"OOOOOOOOooOOO@@O@OOOOoooOOOOOOOOOOO@@$$$@$@$@$@$$$$$$@@OOOOOOOOOOOOOOOOO@@@@@@@@@@@@@@@@$@@OOOOOOOOOOOOOOOOOOOOOOOOOOOOO",
"OOOOOOOOoOOOO@O@O@OOOoooOOOOOOOOOO@@@@$$$@$@$@$@@$$$$@@@OOOOOOOOOOOOOOOO@@@@@@@@@@@@@@@@@@OOOOO@OOOOOOOOOOOOOOOOOOOOOOOO",
"OOOOOOOOOOO@@O@@@O@OOoooOOOOOOOOOOO@@$$$@$@$@$@$$$$$$$@OOOOOOOOOOOOOOOOO@@@@@@@@@@@@@@@@$@@OOOOOOOOOOOOOOOOOOOOOOOOOOOOO",
"OOOOOOOOOO@O@@@@O@OOOoooOOOOOOOOOOO@@$$$$@$@$@$@@$$$$$@@OOOOOOOOOOOOOOOO@@@@@@@@@@@@@@@@@@@OOOO@OOOOOOOOOOOOOOOOOOOOOOOO",
"OOOOOOOOO@O@@@@@@O@OOoooOOOOOOOOOO@@@@$$@$@$@$@$$$$$$@@OOOOOOOOOOOOOOOOO@@@@@@@@@@@@@@@@$@OOOOOOOOOOOOOOOOOOOOOOOOOOOOOO",
"OOOOOOOO@O@@@@@$O@@OOoooOOOOOOOOOO@@@@$$$@$@$@$@@$$$$$@@OOOOOOOOOOOOOOOO@@@@@@@@@@@@@@@@@@OOOOO@OOOOOOOOOOOOOOOOOOOOOOOO",
"OOOOOOOOO@O@@@$@@OOOOoooOOOOOOOOOOO@@$$$@$@$@$@$$$$$$@@OOOOOOOOOOOOOOOOO@@@@@@@@@@@@@@@@$@@OOOOOOOOOOOOOOOOOOOOOOOOOOOOO",
"OOOOOOOOO@@@@$@$$@OOOOO@OOOOOOOOOoOO@&$$@$@$@$@$$$@$&$O.OOOOOOOOOOOOOOOO@@@@@@@@@@@@@@@@OOOOOOOOOOOOOOOOO@@OOoooOOOOOOOO",
"OOOOOOOO@OO@@@$@@@@OOOOOOOOOOOOOOoo@$$&$$@$@$@$@&$$$$$@oOOOOOOOOOOOOOOOO@@@@@@@@@@@@@@@@OOOOOOOOOOOOOOOO@OOOOoooOOOOOOOO",
"OOOOOOOOO@O@@$@$$@OOOOO@OOOOOOOOOooO@&&$@$@$@$@$$$@$&$O.OOOOOOOOOOOOOOOO@@@@@@@@@@@@@@@@OOOOOOOOOOOOOOOOO@OOOoooOOOOOOOO",
"OOOOOOOO@O@@@@$@@@@OOOOOOOOOOOOOOoOO$$$$$$$$$$$$&$$$$$@ooooooooooooooooo@O@O@O@O@O@O@O@OOOOOOOOOOOOOOOOO@O@OOooooooooooo",
"OOOOOOOOO@O@@$@$$@OOOOO@OOOOOOOOOooO@&$$$$$$$$$$$$$$$$OoooooooooooooooooO@O@O@O@O@O@O@O@OOOOOOOOOOOOOOOOO@OOOooooooooooo",
"OOOOOOOO@O@@@@$@@@@OOOOOOOOOOOOOOoo@$$&$$&&$&$$&&$@$&$Oo.o.oo..o.oo..o.oOOOOOOOOOOOOOOOOOOOOOOOOOOOOOOOO@O@OOooo.oo..o.o",
"OOOOOOOOO@@@@$@$$@OOOOO@OOOOOOOOOooO@&$$$&$&$&$&$$@$$$O.o.o.o.o.o.o.o.o.OOOOOOOOOOOOOOOOOOOOOOOOOOOOOOOOO@@OOoooo.o.o.o.",
"OOOOOOOO@OO@@@$@@@@OOOOOOOOOOOOOOoo@$$&$&$&$&$&$&$$$&$@o.o.o.o.o.o.o.o.oOOOOOOOOOOOOOOOOOOOOOOOOOOOOOOOO@OOOOooo.o.o.o.o",
"OOOOOOOOO@@@@$@$$@OOOOO@OOOOOOOOOO@@@@$&@$@$@$@$@@$$@@Ooooooooooo.o.o.o.OOOOOOOOOOOOOOOOOOOOOOOOOOOOOOOOOOOOOOOOOOOOOOOO",
"OOOOOOOO@OO@@@$@@@@OOOOOOOOOOOOOOOO@@$$$$@$@$@$@@@$@$@OOOOOOOOOOooooooooOOOOOOOOOOOOOOOOOOOOOOOOOOOOOOOOOOOOOOOOOOOOOOOO",
"OOOOOOOOO@O@@$@$$@OOOOO@OOOOOOOOOOOO@$@$@@@@@@@@@@@$@OOOO@O@O@O@OOOOOOOOOOOOOOOOOOOOOOOOOOOOOOOOOOOOOOOOOOOOO@@OO@@OO@O@",
"OOOOOOOO@O@@@@$@@@@OOOOOOOOOOOOOOOO@O@@@@O@OO@O@O@@@O@@O$@$@$@$@@@@@@@@@OOOOOOOOOOOOOOOOOOOOOOOOOOOOOOOOOOOOOO@@@@@@@@@@",
"OOOOOOOOO@O@@$@$$@OOOOO@OOOOOOOOOOO@@@O@O@O@@O@O@OOO@O@@$$$$$$$$@$@$@$@$OOOOOOOOOOOOOOOOOOOOOOOOOOOOOOOOOOOO@@@$@@@@@@@@",
"OOOOOOOO@O@@@@$@@@@OOOOOOOOOOOOOOOOOOOO@OOOOOOOOOOOOOOO@$$$$$$$$$@$@$@$@OOOOOOOOOOOOOOOOOOOOOOOOOOOOOOOOOO@@@@$@$@@$$@$@",
"OOOOOOOOO@@@@$@$$@OOOOO@OOOOOOOOOOOOOOOOooooooooOOoooO@$@$@$@$@$@@@@@@@@OOOOOOOOOOOOOOOOOOOOOOOOOOOOOOOOOO@O@@$$$$$$$$$$",
"OOOOOOOO@OO@@@$@@@@OOOOOOOOOOOOOOOOOOOOOooooooooOo.ooO@@$@$@$@$@@@@@@@@@OOOOOOOOOOOOOOOOOOOOOOOOOOOOOOOOOOO@$$$$$$$$$$$$",
"OOOOOOOOO@O@@@@$@@@@@@@@@@@@OOOOOOOOOOOOOOOOOOOOOooooOO@@@@@@@@@@@@@@@@@OOOOOOOOOOOOOOOOOOOOOOOOOOO@O@@@@@@@$$$$@$@$@$@$",
"OOOOOOOO@O@@@$$@@@@@@@@@@@@O@OOOOOOOOOOOOOOOOOOOOooooO@@@@@@@@@@@@@@@@@@OOOOOOOOOOOOOOOOOOOOOOOOOOOO@@@@@@@$@$$$$@$@$@$@",
"OOOOOOOOO@O@@$@$@@@@@@@@@@@@OOOOOOOOOOOOOOOOOOOOOooooOO@@@@@@@@@@@@@@@@@OOOOOOOOOOOOOOOOOOOOOOOOOOO@O@@@@@@@$$$$@$@$@$@$",
"OOOOOOOO@O@@@@$@@@@@@@@@@@@O@OOOOOOOOOOOOOOOOOOOOooooO@@@@@@@@@@@@@@@@@@OOOOOOOOOOOOOOOOOOOOOOOOOOOO@@@@@@@$@$$$$@$@$@$@",
"OOOOOOOOO@O@@$@$@@@@@@@@@@@@OOOOOOOOOOOOOOOOOOOOOooooOO@@@@@@@@@@@@@@@@@OOOOOOOOOOOOOOOOOOOOOOOOOOO@O@@@@@@$@$$$@$@$@$@$",
"OOOOOOOO@O@@@@$@@@@@@@@@@@@O@OOOOOOOOOOOOOOOOOOOOooooO@@@@@@@@@@@@@@@@@@OOOOOOOOOOOOOOOOOOOOOOOOOOOO@@@@@@@@$$$$$@$@$@$@",
"OOOOOOOOO@O@@@@$@@@@@@@@@@@@OOOOOOOOOOOOOOOOOOOOOooooOO@@@@@@@@@@@@@@@@@OOOOOOOOOOOOOOOOOOOOOOOOOOO@O@@@@@@$@$$$@$@$@$@$",
"OOOOOOOO@O@@@$$@@@@@@@@@@@@O@OOOOOOOOOOOOOOOOOOOOooooO@@@@@@@@@@@@@@@@@@OOOOOOOOOOOOOOOOOOOOOOOOOOOO@@@@@@@@$$$$$@$@$@$@",
"OOOOOOOOO@O@@$@$@@@@@@@@@@@@OOOOOOOOOOOOOOOOOOOOOOOOOOOOO@O@O@O@O@O@O@O@OOOOOOOOOOOOOOOOOOOOOOOOOOO@O@@@@@@$@$$$$$$$$$$$",
"OOOOOOOO@O@@@@$@@@@@@@@@@@@O@OOOOOOOOOOOOOOOOOOOOOOOOOOO@O@O@O@O@O@O@O@OOOOOOOOOOOOOOOOOOOOOOOOOOOOO@@@@@@@@$$$$$$$$$$$$",
"OOOOOOOOO@O@@$@$@@@@@@@@@@@@OOOOOOOOOOOOOOOOOOOOOOOOOOOO@OO@O@@O@OO@O@@OOOOOOOOOOOOOOOOOOOOOOOOOOOO@O@@@@@@$@$$$$&$&$&$&",
"OOOOOOOO@O@@@@$@@@@@@@@@@@@O@OOOOOOOOOOOOOOOOOOOOOOOOOOOOOOOOOOOOOOOOOOOOOOOOOOOOOOOOOOOOOOOOOOOOOOO@@@@@@@@$$$$&$&$&$&$",
"OOOOOOOOO@@@@@@$@@@@@@@@@@@@OOOOOOOOOOOOOOOOOOOOOOOOOOOOOOOOOOOOOOOOOOOOOOOOOOOOOOOOOOOOOOOOOOOOOOO@O@@@@@@@$$$$$&$&$&$&",
"OOOOOOOO@OO@@$$@@@@@@@@@@@@O@OOOOOOOOOOOOOOOOOOOOOOOOOOOooooooooooooooooOOOOOOOOOOOOOOOOOOOOOOOOOOOO@@@@@@@$@$$$$$$$$$$$",
"OOOOOOOOO@O@@$@$@@@@@@@@@@@@OOOOOOOOOOOOOOOOOOOOOOOOOOOOooooooooooooooooOOOOOOOOOOOOOOOOOOOOOOOOOOO@O@@@@@@@$$$$@$@$@$@$",
"OOOOOOOO@O@@@@$@@@@@@@@@@@@O@OOOOOOOOOOOOOOOOOOOOOOOOOOOooooooooooooooooOOOOOOOOOOOOOOOOOOOOOOOOOOOO@@@@@@@$@$$$@@@@@@@@",
"OOOOOOOO@@@@@@@@@@@@@@@@O@O@O@O@OOOOOOOOOOOOOOOOOOOOOOOOOOOOOOOOOOOOOOOOOOOOOOOOOOOOOOOOoooOO@O@@O@@@$$@@@@@@@Oo@O@O@O@O",
"OOOOOOOO@@@@@@@@@@@@@@@@@O@O@O@OOOOOOOOOOOOOOOOOOOOOOOOOOOOOOOOOOOOOOOOOOOOOOOOOOOOOOOOOoooOOO@OO@O@@@@$O@@@@OOoOOOOOOOO",
"OOOOOOOO@@@@@@@@@@@@@@@@O@O@@OO@OOOOOOOOOOOOOOOOOOOOOOOOOOOOOOOOOOOOOOOOOOOOOOOOOOOOOOOOoooOO@O@@O@@@@$@@@@@@@OoOOOOOOOO",
"OOOOOOOO@O@O@O@O@O@O@O@OOOOOOOOOooOOOOO@@O@O@O@OOOOOOOOOOOOOOOOOOOOOOOOOOOOOOOOOOOOOOOOOoooOOO@OO@O@@$@$O@@@@OOooooooooo",
"OOOOOOOOO@O@O@O@O@O@O@O@OOOOOOOOoooOO@@OO@O@O@O@OOOOOOOOOOOOOOOOOOOOOOOOOOOOOOOOOOOOOOOOoooOO@O@@O@@@@$@@@@@@@Oooooooooo",
"OOOOOOOOOOOOOOOOOOOOOOOOoooooooo.ooOOO@@@@@@@@@@OOOOOOOOOOOOOOOOOOOOOOOOOOOOOOOOOOOOOOOOoooOOO@OO@O@@$@$O@@@@OOoOOOOOOOO",
"OOOOOOOOOOOOOOOOOOOOOOOOooooooooo.oOOO@@@@@@@@@@OOOOOOOOOOOOOOOOOOOOOOOOOOOOOOOOOOOOOOOOoooOO@O@@O@@@$$@@@@@@OOoOOOOOOOO",
"OOOOOOOOOOOOOOOOOOOOOOOOoooooooo.ooOO@@@@@@@@@@@OOOOOOOOOOOOOOOOOOOOOOOOOOOOOOOOOOOOOOOOoooOOO@OO@O@@@@$O@@@@@OO@O@O@O@O",
"OOOOOOOOOOOOOOOOOOOOOOOOOOOOOOOOo.oOOO@@O@O@O@O@OOOOOOOOOOOOOOOOOOOOOOOOOOOOOOOOOOOOOOOOO@O@O@O@OOOO@@@@@$$@@@OOOOOOOOOO",
"OOOOOOOOOOOOOOOOOOOOOOOOOOOOOOOO.ooOO@@@@O@O@O@OOOOOOOOOOOOOOOOOOOOOOOOOOOOOOOOOOOOOOOOO@O@O@O@OOOO@O@@@@@@$@@@OOOOOOOOO",
"OOOOOOOOOOOOOOOOOOOOOOOOOOOOOOOOo.oOO@@@O@O@O@O@OOOOOOOOOOOOOOOOOOOOOOOOOOOOOOOOOOOOOOOOO@O@O@O@OOOO@@@@@@$@@@OOOOOOOOOO",
"OOOOOOOOOOOOOOOOoooooooooooooooo.ooOOO@@@O@O@O@OOOOOOOOOOOOOOOOOOOOOOOOO@O@OO@O@@O@O@O@O@O@O@O@OOOO@O@@@O@@@@OOooooooooo",
"OOOOOOOOOOOOOOOOooooooooooooooooo.oOO@@@O@O@O@O@OOOOOOOOOOOOOOOOOOOOOOOOO@O@@O@OO@O@O@O@O@O@O@O@OOOO@@@@@O@@@OOooooooooo",
"OOOOOOOOOOOOOOOOo..o.oo..o.oo..o.ooOOO@@@O@O@O@OOOOOOOOOOOOOOOOOOOOOOOOO@@@@@@@@@@@@@@@@@O@O@O@OOOO@O@@@O@O@OOOo.o.oo..o",
"OOOOOOOOOOOOOOOOo.o.o.o.o.o.o.o.o.oOOO@@O@O@O@O@OOOOOOOOOOOOOOOOOOOOOOOO@@@@@@@@@@@@@@@@O@O@O@O@OOOO@@@@OO@O@Oo.o.o.o.o.",
"OOOOOOOOOOOOOOOO.o.o.o.o.o.o.o.o.ooOO@@@@O@O@O@OOOOOOOOOOOOOOOOOOOOOOOOO@@@@@@@@@@@@@@@@@O@O@O@OOOO@O@@@O@O@OOoo.o.o.o.o",
"OOOOOOOOOOOOOOOOooo.o.. oooooooo.oooOO@@@O@O@O@OOOOOOOOOOOOOOOOOOOOOOOOOO@O@O@O@@@@@@@@@@@OooooOoooOO@O@O@@OOooooooooooo",
"OOOOOOOOOOOOOOOOooooo...ooooooooo.oo@O@@O@O@O@O@OOOOOOOOOOOOOOOOOOOOOOOO@O@O@O@O@@@@@@@@@OOooooOoooOOO@O@OOOOooooooooooo",
"OOOOOOOOOOOOOOOOOOoooo.oOOoOOOOOoOoOO@@@@O@O@O@OOOOOOOOOOOOOOOOOOOOOOOOOO@O@O@O@@@@@@@@@@@OooooOoooOO@O@O@O@OOOOOOOOOOOO",
"OOOOOOOOOOOOOOOOOOOOoooo@O@O@O@OoOOO@@@@O@O@O@O@OOOOOOOOOOOOOOOOOOOOOOOO@O@O@O@O@O@OO@O@@OOooooOoooOOO@O@O@OO@OO@O@OO@O@",
"OOOOOOOOOOOOOOOOOOOOO@O@O@O@O@O@OOO@O@@@@O@O@O@OOOOOOOOOOOOOOOOOOOOOOOOOO@O@O@O@O@O@@O@O@OOooooOoooOOOO@O@O@@O@@O@O@@O@O",
"OOOOOOOOOOOOOOOOOOO@O@@@@@@@@@@@O@@@@@@@O@O@O@O@OOOOOOOOOOOOOOOOOOOOOOOO@O@O@O@OOOOOOOOO@@OooooOoooOO@@O@O@O@@@@@@@@@@@@",
"OOOOOOOOOOOOOOOOO@O@@@$@@$@$@$@$@@@@@@@@@O@O@O@OOOOOOOOOOOOOOOOOOOOOOOOOO@O@O@O@OOOOOOOO@@OooooOoooOO@O@O@@@@$@$@$@$@$@$",
"OOOOOOOOOOOOOOOO@O@@@$@$$@$@$@$@@@@@@@@@O@O@O@O@OOOOOOOOOOOOOOOOOOOOOOOO@O@O@O@OOOOOOOOO@OOooooOoooOOO@O@OO@@@$@$@$@$@$@",
"O@O@O@O@O@O@O@O@O@O@@@@$@@@@@@@@@@@O@OOOOOOOOOOOOooooO@@@@@@@@@@@@@@@@@@OOOOOOOOOOOOOOOOoooooooooooooooooo.oO@@@@@@@@@@@",
"@O@O@O@O@O@O@O@O@O@@@$$@@@@@@@@@@@@@OOOOOOOOOOOOOooooOO@@@@@@@@@@@@@@@@@OOOOOOOOOOOOOOOOooooooooooooooooooooOO@$@@@@@@@@",
"O@O@O@O@O@O@O@O@O@O@@$@$@@@@@@@@@@@O@OOOOOOOOOOOOooooOO@@@@@@@@@@@@@@@@@OOOOOOOOOOOOOOOOooooooooooooooooooooO@@@@@@@@@@@",
"@O@O@O@O@O@O@O@O@O@@@@$@@@@@@@@@@@@@OOOOOOOOOOOOOooooO@@@@@@@@@@@@@@@@@@OOOOOOOOOOOOOOOOoooooooooooooooooo.oOO@$@@@@@@@@",
"O@O@O@O@O@O@O@O@O@O@@$@$@@@@@@@@@@@@OOOOOOOOOOOOOooooOO@@@@@@@@@@@@@@@@@OOOOOOOOOOOOOOOOooooooooooooooooooooO@@@@@@@@@@@",
"@O@O@O@O@O@O@O@O@O@@@@$@@@@@@@@@@@@O@OOOOOOOOOOOOooooO@@@@@@@@@@@@@@@@@@OOOOOOOOOOOOOOOOoooooooooooooooooo.oOO@$@@@@@@@@",
"O@O@O@O@O@O@O@O@O@O@@@@$@@@@@@@@@@@@OOOOOOOOOOOOOooooO@@@@@@@@@@@@@@@@@@OOOOOOOOOOOOOOOOoooooooooooooooooo.oO@@@@@@@@@@@",
"@O@O@O@O@O@O@O@O@O@@@$$@@@@@@@@@@@@O@OOOOOOOOOOOOooooOO@@@@@@@@@@@@@@@@@OOOOOOOOOOOOOOOOooooooooooooooooooooOO@$@@@@@@@@",
"O@O@O@O@O@O@O@O@OOO@O@@@@@@@@@@@OOOOOOOOOOOOOOOOOOoooOO@@@@@@@@@@@@@@@@@OOOOOOOOOOOOOOOOoooooooooooooooooooOOOO@@@@@@@@@",
"@O@O@O@O@O@O@O@OOOOO@O@@@@@@@@@@OOOOOOOOOOOOOOOOOooooO@@@@@@@@@@@@@@@@@@OOOOOOOOOOOOOOOOoooooooooooooooooooOO@@O@@@@@@@@",
"O@O@@OO@O@@OO@O@OOOOO@@@@@@@@@@@OOOOOOOOOOOOOOOOOooooOO@@@@@@@@@@@@@@@@@OOOOOOOOOOOOOOOOoooooooooooooooooooOO@O@@@@@@@@@",
"OOOOOOOOOOOOOOOOooOOOO@O@O@OO@O@OOOOOOOOOOOOOOOOOooooO@@@@@@@@@@@@@@@@@@OOOOOOOOOOOOOOOOoooooooooooooooooooOOO@OO@O@@O@O",
"OOOOOOOOOOOOOOOOooooOO@OO@O@@O@OOOOOOOOOOOOOOOOOOooooOO@@@@@@@@@@@@@@@@@OOOOOOOOOOOOOOOOoooooooooooooooooooOO@O@@O@OO@O@",
"ooooooooooooooooooooOOOOOOOOOOOOOOOOOOOOOOOOOOOOOooooO@@@@@@@@@@@@@@@@@@OOOOOOOOOOOOOOOOoooooooooooooooooooOOO@OOOOOOOOO",
"oooooooooooooooo.oooOOOOOOOOOOOOOOOOOOOOOOOOOOOOOooooOO@@@@@@@@@@@@@@@@@OOOOOOOOOOOOOOOOoooooooooooooooooooOOOO@OOOOOOOO",
"ooooooooooooooooo.oooOOOOOOOOOOoOOOOOOOOOOOOOOOOOooooO@@@@@@@@@@@@@@@@@@OOOOOOOOOOOOOOOOoooooooooooooooooooOO@@OOOOOOOOO"
};
